REM DIRINDEX 1\2,1\3,1\4,1\5
REM DIRNAME cjc044,folder01,folder02,folder03,folder04
TITLE ""
FILE "1800_101.mp3" MP3
  TRACK 01 AUDIO
    TITLE "2:cjc044_2793"
    INDEX 01 00:00:00
  TRACK 02 AUDIO
    TITLE "0:"
    INDEX 01 00:01:30
  TRACK 03 AUDIO
    TITLE "3:cjc044_2794"
    INDEX 01 00:02:14
  TRACK 04 AUDIO
    TITLE "0:"
    INDEX 01 00:04:03
  TRACK 05 AUDIO
    TITLE "4:cjc044_2795"
    INDEX 01 00:04:64
  TRACK 06 AUDIO
    TITLE "0:"
    INDEX 01 00:06:24
  TRACK 07 AUDIO
    TITLE "5:cjc044_2796"
    INDEX 01 00:07:05
  TRACK 08 AUDIO
    TITLE "0:"
    INDEX 01 00:10:35
  TRACK 09 AUDIO
    TITLE "2:cjc044_2797"
    INDEX 01 00:12:18
  TRACK 10 AUDIO
    TITLE "0:"
    INDEX 01 00:13:32
  TRACK 11 AUDIO
    TITLE "3:cjc044_2798"
    INDEX 01 00:14:15
  TRACK 12 AUDIO
    TITLE "0:"
    INDEX 01 00:16:00
  TRACK 13 AUDIO
    TITLE "4:cjc044_2799"
    INDEX 01 00:16:57
  TRACK 14 AUDIO
    TITLE "0:"
    INDEX 01 00:17:72
  TRACK 15 AUDIO
    TITLE "5:cjc044_2800"
    INDEX 01 00:18:44
  TRACK 16 AUDIO
    TITLE "0:"
    INDEX 01 00:22:50
  TRACK 17 AUDIO
    TITLE "2:cjc044_2801"
    INDEX 01 00:24:31
  TRACK 18 AUDIO
    TITLE "0:"
    INDEX 01 00:25:45
  TRACK 19 AUDIO
    TITLE "3:cjc044_2802"
    INDEX 01 00:26:30
  TRACK 20 AUDIO
    TITLE "0:"
    INDEX 01 00:28:29
  TRACK 21 AUDIO
    TITLE "4:cjc044_2803"
    INDEX 01 00:29:15
  TRACK 22 AUDIO
    TITLE "0:"
    INDEX 01 00:30:30
  TRACK 23 AUDIO
    TITLE "5:cjc044_2804"
    INDEX 01 00:31:04
  TRACK 24 AUDIO
    TITLE "0:"
    INDEX 01 00:35:14
  TRACK 25 AUDIO
    TITLE "2:cjc044_2805"
    INDEX 01 00:36:70
  TRACK 26 AUDIO
    TITLE "0:"
    INDEX 01 00:38:14
  TRACK 27 AUDIO
    TITLE "3:cjc044_2806"
    INDEX 01 00:38:71
  TRACK 28 AUDIO
    TITLE "0:"
    INDEX 01 00:40:17
  TRACK 29 AUDIO
    TITLE "4:cjc044_2807"
    INDEX 01 00:41:02
  TRACK 30 AUDIO
    TITLE "0:"
    INDEX 01 00:42:18
  TRACK 31 AUDIO
    TITLE "5:cjc044_2808"
    INDEX 01 00:42:70
  TRACK 32 AUDIO
    TITLE "0:"
    INDEX 01 00:46:29
  TRACK 33 AUDIO
    TITLE "2:cjc044_2809"
    INDEX 01 00:48:04
  TRACK 34 AUDIO
    TITLE "0:"
    INDEX 01 00:49:21
  TRACK 35 AUDIO
    TITLE "3:cjc044_2810"
    INDEX 01 00:50:01
  TRACK 36 AUDIO
    TITLE "0:"
    INDEX 01 00:51:09
  TRACK 37 AUDIO
    TITLE "4:cjc044_2811"
    INDEX 01 00:51:60
  TRACK 38 AUDIO
    TITLE "0:"
    INDEX 01 00:53:02
  TRACK 39 AUDIO
    TITLE "5:cjc044_2812"
    INDEX 01 00:53:51
  TRACK 40 AUDIO
    TITLE "0:"
    INDEX 01 00:57:68
  TRACK 41 AUDIO
    TITLE "2:cjc044_2813"
    INDEX 01 00:59:51
  TRACK 42 AUDIO
    TITLE "0:"
    INDEX 01 01:00:62
  TRACK 43 AUDIO
    TITLE "3:cjc044_2814"
    INDEX 01 01:01:48
  TRACK 44 AUDIO
    TITLE "0:"
    INDEX 01 01:02:42
  TRACK 45 AUDIO
    TITLE "4:cjc044_2815"
    INDEX 01 01:03:29
  TRACK 46 AUDIO
    TITLE "0:"
    INDEX 01 01:04:41
  TRACK 47 AUDIO
    TITLE "5:cjc044_2816"
    INDEX 01 01:05:13
  TRACK 48 AUDIO
    TITLE "0:"
    INDEX 01 01:08:23
  TRACK 49 AUDIO
    TITLE "2:cjc044_2817"
    INDEX 01 01:10:14
  TRACK 50 AUDIO
    TITLE "0:"
    INDEX 01 01:11:15
  TRACK 51 AUDIO
    TITLE "3:cjc044_2818"
    INDEX 01 01:11:72
  TRACK 52 AUDIO
    TITLE "0:"
    INDEX 01 01:13:06
  TRACK 53 AUDIO
    TITLE "4:cjc044_2819"
    INDEX 01 01:13:71
  TRACK 54 AUDIO
    TITLE "0:"
    INDEX 01 01:14:74
  TRACK 55 AUDIO
    TITLE "5:cjc044_2820"
    INDEX 01 01:15:50
  TRACK 56 AUDIO
    TITLE "0:"
    INDEX 01 01:18:51
  TRACK 57 AUDIO
    TITLE "2:cjc044_2821"
    INDEX 01 01:20:38
  TRACK 58 AUDIO
    TITLE "0:"
    INDEX 01 01:21:51
  TRACK 59 AUDIO
    TITLE "3:cjc044_2822"
    INDEX 01 01:22:31
  TRACK 60 AUDIO
    TITLE "0:"
    INDEX 01 01:23:56
  TRACK 61 AUDIO
    TITLE "4:cjc044_2823"
    INDEX 01 01:24:24
  TRACK 62 AUDIO
    TITLE "0:"
    INDEX 01 01:25:35
  TRACK 63 AUDIO
    TITLE "5:cjc044_2824"
    INDEX 01 01:26:19
  TRACK 64 AUDIO
    TITLE "0:"
    INDEX 01 01:30:36
  TRACK 65 AUDIO
    TITLE "2:cjc044_2825"
    INDEX 01 01:32:19
  TRACK 66 AUDIO
    TITLE "0:"
    INDEX 01 01:33:33
  TRACK 67 AUDIO
    TITLE "3:cjc044_2826"
    INDEX 01 01:34:26
  TRACK 68 AUDIO
    TITLE "0:"
    INDEX 01 01:35:65
  TRACK 69 AUDIO
    TITLE "4:cjc044_2827"
    INDEX 01 01:36:60
  TRACK 70 AUDIO
    TITLE "0:"
    INDEX 01 01:37:71
  TRACK 71 AUDIO
    TITLE "5:cjc044_2828"
    INDEX 01 01:38:51
  TRACK 72 AUDIO
    TITLE "0:"
    INDEX 01 01:41:48
